<mxfile host="app.diagrams.net" agent="Mozilla/5.0 (Windows NT 10.0; Win64; x64) AppleWebKit/537.36 (KHTML, like Gecko) Chrome/131.0.0.0 Safari/537.36" version="25.0.1">
  <diagram name="Page-1" id="Br8Wx8sli5McnMp55z6l">
    <mxGraphModel dx="1290" dy="522" grid="1" gridSize="10" guides="1" tooltips="1" connect="1" arrows="1" fold="1" page="1" pageScale="1" pageWidth="850" pageHeight="1100" math="0" shadow="0">
      <root>
        <mxCell id="0" />
        <mxCell id="1" parent="0" />
        <mxCell id="l_11CZ8YvdLJNFjwXb9s-1" value="" style="rounded=0;whiteSpace=wrap;html=1;" vertex="1" parent="1">
          <mxGeometry x="10" y="80" width="960" height="3570" as="geometry" />
        </mxCell>
        <mxCell id="l_11CZ8YvdLJNFjwXb9s-2" value="文件签署" style="ellipse;whiteSpace=wrap;html=1;aspect=fixed;" vertex="1" parent="1">
          <mxGeometry x="330" y="10" width="80" height="80" as="geometry" />
        </mxCell>
        <mxCell id="l_11CZ8YvdLJNFjwXb9s-3" value="PrintTemplateCommandHandle.handle(ContractSignAllCommand command)" style="text;html=1;align=center;verticalAlign=middle;whiteSpace=wrap;rounded=0;" vertex="1" parent="1">
          <mxGeometry x="60" y="140" width="420" height="30" as="geometry" />
        </mxCell>
        <mxCell id="l_11CZ8YvdLJNFjwXb9s-4" value="printFileRepository 查找文件ID是否存在" style="rounded=0;whiteSpace=wrap;html=1;" vertex="1" parent="1">
          <mxGeometry x="920" y="150" width="290" height="60" as="geometry" />
        </mxCell>
        <mxCell id="l_11CZ8YvdLJNFjwXb9s-5" value="判断PrintType是否走线上签署" style="rhombus;whiteSpace=wrap;html=1;" vertex="1" parent="1">
          <mxGeometry x="980" y="250" width="190" height="80" as="geometry" />
        </mxCell>
        <mxCell id="l_11CZ8YvdLJNFjwXb9s-8" value="" style="edgeStyle=orthogonalEdgeStyle;rounded=0;orthogonalLoop=1;jettySize=auto;html=1;" edge="1" parent="1" source="l_11CZ8YvdLJNFjwXb9s-6" target="l_11CZ8YvdLJNFjwXb9s-7">
          <mxGeometry relative="1" as="geometry" />
        </mxCell>
        <mxCell id="l_11CZ8YvdLJNFjwXb9s-6" value="判断发起方名称或者证件号不能为空" style="rounded=0;whiteSpace=wrap;html=1;" vertex="1" parent="1">
          <mxGeometry x="160" y="200" width="280" height="60" as="geometry" />
        </mxCell>
        <mxCell id="l_11CZ8YvdLJNFjwXb9s-19" style="edgeStyle=orthogonalEdgeStyle;rounded=0;orthogonalLoop=1;jettySize=auto;html=1;" edge="1" parent="1" source="l_11CZ8YvdLJNFjwXb9s-7" target="l_11CZ8YvdLJNFjwXb9s-11">
          <mxGeometry relative="1" as="geometry" />
        </mxCell>
        <mxCell id="l_11CZ8YvdLJNFjwXb9s-7" value="signInterfaceRepository 查找 status 为0 的签署接口" style="rounded=0;whiteSpace=wrap;html=1;" vertex="1" parent="1">
          <mxGeometry x="159" y="360" width="280" height="60" as="geometry" />
        </mxCell>
        <mxCell id="l_11CZ8YvdLJNFjwXb9s-13" value="" style="edgeStyle=orthogonalEdgeStyle;rounded=0;orthogonalLoop=1;jettySize=auto;html=1;" edge="1" parent="1" source="l_11CZ8YvdLJNFjwXb9s-11" target="l_11CZ8YvdLJNFjwXb9s-12">
          <mxGeometry relative="1" as="geometry" />
        </mxCell>
        <mxCell id="l_11CZ8YvdLJNFjwXb9s-14" value="E签宝" style="edgeLabel;html=1;align=center;verticalAlign=middle;resizable=0;points=[];" vertex="1" connectable="0" parent="l_11CZ8YvdLJNFjwXb9s-13">
          <mxGeometry x="-0.1467" y="-1" relative="1" as="geometry">
            <mxPoint as="offset" />
          </mxGeometry>
        </mxCell>
        <mxCell id="l_11CZ8YvdLJNFjwXb9s-11" value="判断接口走e签宝还是&quot;法大大&quot;" style="rhombus;whiteSpace=wrap;html=1;" vertex="1" parent="1">
          <mxGeometry x="180" y="480" width="210" height="80" as="geometry" />
        </mxCell>
        <mxCell id="l_11CZ8YvdLJNFjwXb9s-12" value="" style="whiteSpace=wrap;html=1;" vertex="1" parent="1">
          <mxGeometry x="116" y="843" width="794" height="1987" as="geometry" />
        </mxCell>
        <mxCell id="l_11CZ8YvdLJNFjwXb9s-15" value="EsignCommandHandle.handle(EsignAccountSaveCommand command)" style="text;html=1;align=center;verticalAlign=middle;whiteSpace=wrap;rounded=0;" vertex="1" parent="1">
          <mxGeometry x="116" y="843" width="390" height="30" as="geometry" />
        </mxCell>
        <mxCell id="l_11CZ8YvdLJNFjwXb9s-18" value="" style="edgeStyle=orthogonalEdgeStyle;rounded=0;orthogonalLoop=1;jettySize=auto;html=1;" edge="1" parent="1" source="l_11CZ8YvdLJNFjwXb9s-16" target="l_11CZ8YvdLJNFjwXb9s-17">
          <mxGeometry relative="1" as="geometry" />
        </mxCell>
        <mxCell id="l_11CZ8YvdLJNFjwXb9s-16" value="signInterfaceRepository 获取签署接口" style="rounded=1;whiteSpace=wrap;html=1;" vertex="1" parent="1">
          <mxGeometry x="210" y="890" width="260" height="60" as="geometry" />
        </mxCell>
        <mxCell id="l_11CZ8YvdLJNFjwXb9s-21" value="" style="edgeStyle=orthogonalEdgeStyle;rounded=0;orthogonalLoop=1;jettySize=auto;html=1;" edge="1" parent="1" source="l_11CZ8YvdLJNFjwXb9s-17" target="l_11CZ8YvdLJNFjwXb9s-20">
          <mxGeometry relative="1" as="geometry" />
        </mxCell>
        <mxCell id="l_11CZ8YvdLJNFjwXb9s-17" value="esignRecordHeadRepository 写入批量签署 (&quot;BATCH&quot;)" style="rounded=1;whiteSpace=wrap;html=1;" vertex="1" parent="1">
          <mxGeometry x="210" y="990" width="260" height="60" as="geometry" />
        </mxCell>
        <mxCell id="l_11CZ8YvdLJNFjwXb9s-23" value="" style="edgeStyle=orthogonalEdgeStyle;rounded=0;orthogonalLoop=1;jettySize=auto;html=1;" edge="1" parent="1" source="l_11CZ8YvdLJNFjwXb9s-20" target="l_11CZ8YvdLJNFjwXb9s-22">
          <mxGeometry relative="1" as="geometry" />
        </mxCell>
        <mxCell id="l_11CZ8YvdLJNFjwXb9s-20" value="构建ESignProperties&lt;div&gt;(请求域名，应用ID，应用密钥)&lt;/div&gt;" style="rounded=1;whiteSpace=wrap;html=1;" vertex="1" parent="1">
          <mxGeometry x="245" y="1090" width="190" height="60" as="geometry" />
        </mxCell>
        <mxCell id="l_11CZ8YvdLJNFjwXb9s-25" value="" style="edgeStyle=orthogonalEdgeStyle;rounded=0;orthogonalLoop=1;jettySize=auto;html=1;" edge="1" parent="1" source="l_11CZ8YvdLJNFjwXb9s-22" target="l_11CZ8YvdLJNFjwXb9s-24">
          <mxGeometry relative="1" as="geometry" />
        </mxCell>
        <mxCell id="l_11CZ8YvdLJNFjwXb9s-22" value="构建ESign&lt;div&gt;（restTemplate, objectMapper, ESignProperties）&lt;/div&gt;" style="rounded=1;whiteSpace=wrap;html=1;" vertex="1" parent="1">
          <mxGeometry x="245" y="1190" width="255" height="80" as="geometry" />
        </mxCell>
        <mxCell id="l_11CZ8YvdLJNFjwXb9s-29" value="" style="edgeStyle=orthogonalEdgeStyle;rounded=0;orthogonalLoop=1;jettySize=auto;html=1;" edge="1" parent="1" source="l_11CZ8YvdLJNFjwXb9s-24" target="l_11CZ8YvdLJNFjwXb9s-28">
          <mxGeometry relative="1" as="geometry" />
        </mxCell>
        <mxCell id="l_11CZ8YvdLJNFjwXb9s-24" value="printFileRepository 根据 businessModel, businessScene, businessKey, IsHis&lt;div&gt;查找文件列表&lt;/div&gt;" style="rounded=1;whiteSpace=wrap;html=1;" vertex="1" parent="1">
          <mxGeometry x="245" y="1322" width="255" height="80" as="geometry" />
        </mxCell>
        <mxCell id="l_11CZ8YvdLJNFjwXb9s-31" value="" style="edgeStyle=orthogonalEdgeStyle;rounded=0;orthogonalLoop=1;jettySize=auto;html=1;" edge="1" parent="1" source="l_11CZ8YvdLJNFjwXb9s-28" target="l_11CZ8YvdLJNFjwXb9s-30">
          <mxGeometry relative="1" as="geometry" />
        </mxCell>
        <mxCell id="l_11CZ8YvdLJNFjwXb9s-32" value="是" style="edgeLabel;html=1;align=center;verticalAlign=middle;resizable=0;points=[];" vertex="1" connectable="0" parent="l_11CZ8YvdLJNFjwXb9s-31">
          <mxGeometry x="-0.2133" y="-2" relative="1" as="geometry">
            <mxPoint as="offset" />
          </mxGeometry>
        </mxCell>
        <mxCell id="l_11CZ8YvdLJNFjwXb9s-39" style="edgeStyle=orthogonalEdgeStyle;rounded=0;orthogonalLoop=1;jettySize=auto;html=1;" edge="1" parent="1">
          <mxGeometry relative="1" as="geometry">
            <mxPoint x="492" y="1500" as="sourcePoint" />
            <mxPoint x="670" y="2349" as="targetPoint" />
            <Array as="points">
              <mxPoint x="760" y="1500" />
              <mxPoint x="760" y="2349" />
            </Array>
          </mxGeometry>
        </mxCell>
        <mxCell id="l_11CZ8YvdLJNFjwXb9s-28" value="InitiatorCardNo &amp;amp;&amp;amp;&amp;nbsp;InitiatorName 都不为空" style="rhombus;whiteSpace=wrap;html=1;rounded=1;" vertex="1" parent="1">
          <mxGeometry x="253" y="1460" width="240" height="80" as="geometry" />
        </mxCell>
        <mxCell id="l_11CZ8YvdLJNFjwXb9s-41" value="" style="edgeStyle=orthogonalEdgeStyle;rounded=0;orthogonalLoop=1;jettySize=auto;html=1;" edge="1" parent="1" source="l_11CZ8YvdLJNFjwXb9s-30" target="l_11CZ8YvdLJNFjwXb9s-40">
          <mxGeometry relative="1" as="geometry" />
        </mxCell>
        <mxCell id="l_11CZ8YvdLJNFjwXb9s-30" value="esignAccountRepository 根据 InitiatorCardNo查找 ESignAccount&lt;div&gt;&lt;br&gt;&lt;/div&gt;" style="whiteSpace=wrap;html=1;rounded=1;" vertex="1" parent="1">
          <mxGeometry x="180" y="1629" width="280" height="51" as="geometry" />
        </mxCell>
        <mxCell id="l_11CZ8YvdLJNFjwXb9s-33" value="" style="whiteSpace=wrap;html=1;rounded=1;" vertex="1" parent="1">
          <mxGeometry x="180" y="2127" width="490" height="443" as="geometry" />
        </mxCell>
        <mxCell id="l_11CZ8YvdLJNFjwXb9s-43" value="" style="edgeStyle=orthogonalEdgeStyle;rounded=0;orthogonalLoop=1;jettySize=auto;html=1;" edge="1" parent="1" source="l_11CZ8YvdLJNFjwXb9s-40" target="l_11CZ8YvdLJNFjwXb9s-42">
          <mxGeometry relative="1" as="geometry" />
        </mxCell>
        <mxCell id="l_11CZ8YvdLJNFjwXb9s-44" value="是" style="edgeLabel;html=1;align=center;verticalAlign=middle;resizable=0;points=[];" vertex="1" connectable="0" parent="l_11CZ8YvdLJNFjwXb9s-43">
          <mxGeometry x="-0.0733" y="-2" relative="1" as="geometry">
            <mxPoint as="offset" />
          </mxGeometry>
        </mxCell>
        <mxCell id="l_11CZ8YvdLJNFjwXb9s-46" value="" style="edgeStyle=orthogonalEdgeStyle;rounded=0;orthogonalLoop=1;jettySize=auto;html=1;" edge="1" parent="1" source="l_11CZ8YvdLJNFjwXb9s-40" target="l_11CZ8YvdLJNFjwXb9s-45">
          <mxGeometry relative="1" as="geometry" />
        </mxCell>
        <mxCell id="l_11CZ8YvdLJNFjwXb9s-47" value="否" style="edgeLabel;html=1;align=center;verticalAlign=middle;resizable=0;points=[];" vertex="1" connectable="0" parent="l_11CZ8YvdLJNFjwXb9s-46">
          <mxGeometry x="-0.2622" y="1" relative="1" as="geometry">
            <mxPoint as="offset" />
          </mxGeometry>
        </mxCell>
        <mxCell id="l_11CZ8YvdLJNFjwXb9s-40" value="是否存在记录" style="rhombus;whiteSpace=wrap;html=1;rounded=1;" vertex="1" parent="1">
          <mxGeometry x="280" y="1720" width="80" height="80" as="geometry" />
        </mxCell>
        <mxCell id="l_11CZ8YvdLJNFjwXb9s-42" value="将AccountId 赋值给&lt;div&gt;initiatorId&lt;/div&gt;" style="whiteSpace=wrap;html=1;rounded=1;" vertex="1" parent="1">
          <mxGeometry x="420" y="1730" width="120" height="60" as="geometry" />
        </mxCell>
        <mxCell id="l_11CZ8YvdLJNFjwXb9s-49" value="" style="edgeStyle=orthogonalEdgeStyle;rounded=0;orthogonalLoop=1;jettySize=auto;html=1;" edge="1" parent="1" source="l_11CZ8YvdLJNFjwXb9s-45" target="l_11CZ8YvdLJNFjwXb9s-48">
          <mxGeometry relative="1" as="geometry" />
        </mxCell>
        <mxCell id="l_11CZ8YvdLJNFjwXb9s-45" value="根据InitiatorCardNo &amp;amp;&amp;amp;&amp;nbsp;InitiatorName 创建企业账号返回值赋值给initiatoId。与e签宝交互执行&amp;nbsp; exec(CreateOrganizationsByThirdPartyUserId req)" style="whiteSpace=wrap;html=1;rounded=1;" vertex="1" parent="1">
          <mxGeometry x="140" y="1850" width="360" height="100" as="geometry" />
        </mxCell>
        <mxCell id="l_11CZ8YvdLJNFjwXb9s-50" style="edgeStyle=orthogonalEdgeStyle;rounded=0;orthogonalLoop=1;jettySize=auto;html=1;entryX=0.5;entryY=0;entryDx=0;entryDy=0;" edge="1" parent="1" source="l_11CZ8YvdLJNFjwXb9s-48" target="l_11CZ8YvdLJNFjwXb9s-33">
          <mxGeometry relative="1" as="geometry" />
        </mxCell>
        <mxCell id="l_11CZ8YvdLJNFjwXb9s-48" value="esignAccountRepository保存该记录" style="whiteSpace=wrap;html=1;rounded=1;" vertex="1" parent="1">
          <mxGeometry x="260" y="1980" width="120" height="60" as="geometry" />
        </mxCell>
        <mxCell id="l_11CZ8YvdLJNFjwXb9s-52" value="遍历printfile" style="text;html=1;align=center;verticalAlign=middle;whiteSpace=wrap;rounded=0;" vertex="1" parent="1">
          <mxGeometry x="200" y="2140" width="90" height="30" as="geometry" />
        </mxCell>
        <mxCell id="l_11CZ8YvdLJNFjwXb9s-53" value="创建易签宝签署文件" style="rounded=1;whiteSpace=wrap;html=1;" vertex="1" parent="1">
          <mxGeometry x="225" y="2180" width="120" height="60" as="geometry" />
        </mxCell>
      </root>
    </mxGraphModel>
  </diagram>
</mxfile>
